<?xml version="1.0" encoding="utf-8"?>
<!-- Generator: Adobe Illustrator 19.2.0, SVG Export Plug-In . SVG Version: 6.00 Build 0)  -->
<svg version="1.1" id="Layer_2" xmlns="http://www.w3.org/2000/svg" xmlns:xlink="http://www.w3.org/1999/xlink" x="0px" y="0px"
	 viewBox="0 0 136.2 27.5" style="enable-background:new 0 0 136.2 27.5;" xml:space="preserve">
<style type="text/css">
	.st0{fill:#FFFFFF;}
	.st1{clip-path:url(#SVGID_2_);fill:#FFFFFF;}
	.st2{clip-path:url(#SVGID_4_);fill:#FFFFFF;}
	.st3{clip-path:url(#SVGID_7_);fill:#FFFFFF;}
	.st4{clip-path:url(#SVGID_9_);fill:#FFFFFF;}
	.st5{clip-path:url(#SVGID_12_);fill:#FFFFFF;}
	.st6{clip-path:url(#SVGID_14_);fill:#FFFFFF;}
	.st7{clip-path:url(#SVGID_16_);fill:#FFFFFF;}
	.st8{clip-path:url(#SVGID_18_);fill:#FFFFFF;}
	.st9{clip-path:url(#SVGID_20_);fill:#FFFFFF;}
	.st10{clip-path:url(#SVGID_22_);fill:#FFFFFF;}
	.st11{clip-path:url(#SVGID_24_);fill:#FFFFFF;}
	.st12{clip-path:url(#SVGID_26_);fill:#FFFFFF;}
	.st13{clip-path:url(#SVGID_28_);fill:#FFFFFF;}
	.st14{clip-path:url(#SVGID_30_);fill:#FFFFFF;}
	.st15{clip-path:url(#SVGID_32_);fill:#FFFFFF;}
	.st16{clip-path:url(#SVGID_34_);fill:#FFFFFF;}
	.st17{clip-path:url(#SVGID_36_);fill:#FFFFFF;}
	.st18{clip-path:url(#SVGID_38_);fill:#FFFFFF;}
	.st19{clip-path:url(#SVGID_40_);fill:#FFFFFF;}
	.st20{clip-path:url(#SVGID_42_);fill:#FFFFFF;}
	.st21{clip-path:url(#SVGID_44_);fill:#FFFFFF;}
	.st22{clip-path:url(#SVGID_46_);fill:#FFFFFF;}
	.st23{fill:url(#SVGID_47_);}
	.st24{display:none;}
	.st25{display:inline;}
	.st26{display:inline;clip-path:url(#SVGID_49_);fill:#2D473F;}
	.st27{clip-path:url(#SVGID_51_);fill:#FFFFFF;}
	.st28{display:inline;clip-path:url(#SVGID_53_);fill:#2D473F;}
	.st29{clip-path:url(#SVGID_55_);fill:#FFFFFF;}
	.st30{display:inline;clip-path:url(#SVGID_57_);fill:#2D473F;}
	.st31{clip-path:url(#SVGID_59_);fill:#FFFFFF;}
	.st32{display:inline;clip-path:url(#SVGID_61_);fill:#2D473F;}
	.st33{clip-path:url(#SVGID_63_);fill:#FFFFFF;}
	.st34{display:inline;clip-path:url(#SVGID_65_);fill:#2D473F;}
	.st35{fill:url(#SVGID_66_);}
	.st36{clip-path:url(#SVGID_68_);fill:#FFFFFF;}
	.st37{clip-path:url(#SVGID_70_);fill:#FFFFFF;}
	.st38{clip-path:url(#SVGID_72_);fill:#FFFFFF;}
	.st39{clip-path:url(#SVGID_74_);fill:#FFFFFF;}
	.st40{clip-path:url(#SVGID_76_);fill:#FFFFFF;}
</style>
<g>
	<g>
		<polygon class="st0" points="113.4,15.2 113.4,17.4 113.1,17.4 113.1,15.2 112.5,15.2 112.5,14.9 114,14.9 114,15.2 		"/>
	</g>
</g>
<g>
	<g>
		<defs>
			<rect id="SVGID_1_" x="-10.5" y="-5.2" width="133.5" height="33.8"/>
		</defs>
		<clipPath id="SVGID_2_">
			<use xlink:href="#SVGID_1_"  style="overflow:visible;"/>
		</clipPath>
		<path class="st1" d="M116.5,17.4c0-0.8-0.1-1.6-0.1-2.1l0,0l-0.7,2.1h-0.2l-0.7-2.1l0,0c0,0.5-0.1,1.3-0.1,2.1h-0.3
			c0-0.8,0.1-1.7,0.2-2.4h0.4l0.7,1.9l0,0l0.7-1.9h0.4c0.1,0.8,0.2,1.7,0.2,2.4H116.5z"/>
	</g>
	<g>
		<defs>
			<rect id="SVGID_3_" x="-10.5" y="-5.2" width="133.5" height="33.8"/>
		</defs>
		<clipPath id="SVGID_4_">
			<use xlink:href="#SVGID_3_"  style="overflow:visible;"/>
		</clipPath>
		<path class="st2" d="M64.8,10c-0.3,0-0.6,0-0.9-0.1v1.5h-2.2V1.3h1.8l0.2,0.9c0.7-0.6,1.5-1,2.3-1c2,0,3,1.8,3,4.1
			C69,8.6,67.2,10,64.8,10 M65.4,2.9c-0.4,0-1,0.2-1.5,0.7v4.7c0.3,0.1,0.6,0.2,1,0.2c1.1,0,1.9-0.9,1.9-2.9
			C66.8,3.9,66.3,2.9,65.4,2.9"/>
	</g>
	<g>
		<defs>
			<rect id="SVGID_6_" x="-10.5" y="-5.2" width="133.5" height="33.8"/>
		</defs>
		<clipPath id="SVGID_7_">
			<use xlink:href="#SVGID_6_"  style="overflow:visible;"/>
		</clipPath>
		<path class="st3" d="M36.2,10.2c-2.3,0-3.4-1.4-3.4-4.4c0-2.7,1.4-4.6,3.7-4.6c1,0,1.9,0.4,2.5,1.1l-0.8,1.1
			c-0.4-0.4-0.9-0.6-1.4-0.6c-1,0-1.7,0.9-1.7,2.7c0,2.1,0.6,2.9,1.6,2.9c0.7,0,1.3-0.2,1.8-0.7L39.2,9
			C38.5,9.7,37.6,10.2,36.2,10.2"/>
	</g>
	<g>
		<defs>
			<rect id="SVGID_8_" x="-10.5" y="-5.2" width="133.5" height="33.8"/>
		</defs>
		<clipPath id="SVGID_9_">
			<use xlink:href="#SVGID_8_"  style="overflow:visible;"/>
		</clipPath>
		<path class="st4" d="M43.2,10.3c-2.4,0-3.8-1.2-3.8-4.3c0-3.2,1.6-4.7,4.2-4.7c2.4,0,3.8,1.2,3.8,4.3
			C47.4,8.8,45.8,10.3,43.2,10.3 M43.4,2.9c-1,0-1.7,0.7-1.7,2.7c0,2.4,0.6,3.1,1.7,3.1c1,0,1.7-0.7,1.7-2.7
			C45.1,3.5,44.5,2.9,43.4,2.9"/>
	</g>
	<g>
		<defs>
			<rect id="SVGID_11_" x="-10.5" y="-5.2" width="133.5" height="33.8"/>
		</defs>
		<clipPath id="SVGID_12_">
			<use xlink:href="#SVGID_11_"  style="overflow:visible;"/>
		</clipPath>
		<path class="st5" d="M60.4,10.1h-2.2c0-1.7,0.1-3.5,0.1-4.5c0-2.1-0.4-2.5-1.1-2.5c-0.4,0-1.1,0.3-1.6,0.8
			c0.1,0.3,0.1,0.7,0.1,1.3v5h-2.2V5.6c0-2-0.4-2.5-1.1-2.5c-0.4,0-1,0.3-1.6,0.7v6.3h-2.2V1.4h1.8l0.2,0.9C51.1,1.7,52,1.2,53,1.2
			c1.1,0,1.8,0.5,2.1,1.2c0.8-0.7,1.7-1.2,2.8-1.2c1.7,0,2.6,1.1,2.6,3.9C60.4,6.2,60.4,8.2,60.4,10.1"/>
	</g>
	<g>
		<defs>
			<rect id="SVGID_13_" x="-10.5" y="-5.2" width="133.5" height="33.8"/>
		</defs>
		<clipPath id="SVGID_14_">
			<use xlink:href="#SVGID_13_"  style="overflow:visible;"/>
		</clipPath>
		<path class="st6" d="M75.3,10.1l-0.2-0.9c-0.7,0.6-1.5,1.1-2.6,1.1c-1.7,0-2.7-0.9-2.7-2.5c0-1.8,1.4-3,4.4-3h0.5V4.2
			c0-0.9-0.5-1.3-1.6-1.3c-0.9,0-1.8,0.2-2.6,0.5L70.3,2c1-0.4,2.2-0.8,3.5-0.8C76,1.2,77,2.3,77,3.9V10h-1.7V10.1z M74.8,6.2h-0.7
			c-1.7,0-2.2,0.6-2.2,1.4c0,0.7,0.4,1.2,1.2,1.2c0.5,0,1.1-0.3,1.7-0.8V6.2z"/>
	</g>
	<g>
		<defs>
			<rect id="SVGID_15_" x="-10.5" y="-5.2" width="133.5" height="33.8"/>
		</defs>
		<clipPath id="SVGID_16_">
			<use xlink:href="#SVGID_15_"  style="overflow:visible;"/>
		</clipPath>
		<path class="st7" d="M83.2,3.4c-0.4-0.1-0.6-0.1-0.8-0.1c-0.5,0-0.9,0.3-1.7,1.3v5.5h-2.2V1.4h1.8l0.2,1.3
			c0.9-1.2,1.5-1.5,2.1-1.5c0.3,0,0.6,0.1,0.8,0.2L83.2,3.4z"/>
	</g>
	<g>
		<defs>
			<rect id="SVGID_17_" x="-10.5" y="-5.2" width="133.5" height="33.8"/>
		</defs>
		<clipPath id="SVGID_18_">
			<use xlink:href="#SVGID_17_"  style="overflow:visible;"/>
		</clipPath>
		<path class="st8" d="M85.7,6.2L85.7,6.2c0,1.7,0.7,2.4,1.9,2.4c0.8,0,1.8-0.2,2.8-0.5l0.3,1.3c-1.1,0.6-2.3,0.9-3.6,0.9
			c-2.3,0-3.8-1.1-3.8-4.3c0-3.1,1.5-4.7,3.9-4.7c2.2,0,3.7,1.2,3.4,4.9C90.6,6.2,85.7,6.2,85.7,6.2z M88.6,4.8
			c0-1.4-0.5-2.1-1.4-2.1s-1.5,0.9-1.5,2.1H88.6L88.6,4.8z"/>
	</g>
	<g>
		<defs>
			<rect id="SVGID_19_" x="-10.5" y="-5.2" width="133.5" height="33.8"/>
		</defs>
		<clipPath id="SVGID_20_">
			<use xlink:href="#SVGID_19_"  style="overflow:visible;"/>
		</clipPath>
		<path class="st9" d="M45.6,23.3h-2.2c0-1.7,0.1-3.5,0.1-4.5c0-2.1-0.4-2.5-1.1-2.5c-0.4,0-1.1,0.3-1.6,0.8
			c0.1,0.3,0.1,0.7,0.1,1.3v5h-2.2v-4.5c0-2-0.4-2.5-1.1-2.5c-0.4,0-1,0.3-1.6,0.7v6.3h-2.2v-8.6h1.8l0.2,0.9
			c0.7-0.6,1.6-1.1,2.6-1.1c1.1,0,1.8,0.5,2.1,1.2c0.8-0.7,1.7-1.2,2.8-1.2c1.7,0,2.6,1.1,2.6,3.9C45.6,19.5,45.6,21.4,45.6,23.3"/>
	</g>
	<g>
		<defs>
			<rect id="SVGID_21_" x="-10.5" y="-5.2" width="133.5" height="33.8"/>
		</defs>
		<clipPath id="SVGID_22_">
			<use xlink:href="#SVGID_21_"  style="overflow:visible;"/>
		</clipPath>
		<path class="st10" d="M52.1,23.3l-0.2-0.9c-0.7,0.6-1.5,1.1-2.6,1.1c-1.7,0-2.7-0.9-2.7-2.5c0-1.8,1.4-3,4.4-3h0.5v-0.7
			c0-0.9-0.5-1.3-1.6-1.3c-0.9,0-1.8,0.2-2.6,0.5L47,15.2c1-0.4,2.2-0.8,3.5-0.8c2.2,0,3.2,1.1,3.2,2.7v6.1L52.1,23.3L52.1,23.3z
			 M51.6,19.4H51c-1.7,0-2.2,0.6-2.2,1.4c0,0.7,0.4,1.2,1.2,1.2c0.5,0,1.1-0.3,1.7-0.8v-1.8H51.6z"/>
	</g>
	<g>
		<defs>
			<rect id="SVGID_23_" x="-10.5" y="-5.2" width="133.5" height="33.8"/>
		</defs>
		<clipPath id="SVGID_24_">
			<use xlink:href="#SVGID_23_"  style="overflow:visible;"/>
		</clipPath>
		<path class="st11" d="M60.2,16.7c-0.4-0.1-0.6-0.1-0.8-0.1c-0.5,0-0.9,0.3-1.7,1.3v5.5h-2.2v-8.6h1.8l0.2,1.3
			c0.9-1.2,1.5-1.5,2.1-1.5c0.3,0,0.6,0.1,0.8,0.2L60.2,16.7z"/>
	</g>
	<g>
		<defs>
			<rect id="SVGID_25_" x="-10.5" y="-5.2" width="133.5" height="33.8"/>
		</defs>
		<clipPath id="SVGID_26_">
			<use xlink:href="#SVGID_25_"  style="overflow:visible;"/>
		</clipPath>
		<polygon class="st12" points="65.8,23.3 63.5,19.1 63.5,23.3 61.3,23.3 61.3,13.2 63.5,13.2 63.5,18 65.5,14.7 68.1,14.7 
			65.5,18.3 68.4,23.3 		"/>
	</g>
	<g>
		<defs>
			<rect id="SVGID_27_" x="-10.5" y="-5.2" width="133.5" height="33.8"/>
		</defs>
		<clipPath id="SVGID_28_">
			<use xlink:href="#SVGID_27_"  style="overflow:visible;"/>
		</clipPath>
		<path class="st13" d="M70.7,19.4v0.1c0,1.6,0.7,2.3,1.9,2.3c0.8,0,1.8-0.2,2.8-0.5l0.3,1.3c-1.1,0.6-2.3,0.9-3.6,0.9
			c-2.3,0-3.8-1.1-3.8-4.3c0-3.1,1.5-4.7,3.9-4.7c2.2,0,3.7,1.2,3.5,4.9C75.7,19.4,70.7,19.4,70.7,19.4z M73.7,18
			c0-1.4-0.5-2.1-1.4-2.1s-1.5,0.9-1.5,2.1H73.7L73.7,18z"/>
	</g>
	<g>
		<defs>
			<rect id="SVGID_29_" x="-10.5" y="-5.2" width="133.5" height="33.8"/>
		</defs>
		<clipPath id="SVGID_30_">
			<use xlink:href="#SVGID_29_"  style="overflow:visible;"/>
		</clipPath>
		<path class="st14" d="M79.5,23.5c-1.6,0-2.2-0.6-2.2-2.3v-5h-1.1v-1.6h1.2c0.2-0.3,0.4-1.1,0.5-1.4h1.6v1.4h1.9v1.6h-1.9v4.4
			c0,0.9,0.2,1.2,0.8,1.2c0.3,0,0.6,0,1.2-0.2l0.2,1.3C80.9,23.3,80.2,23.5,79.5,23.5"/>
	</g>
	<g>
		<defs>
			<rect id="SVGID_31_" x="-10.5" y="-5.2" width="133.5" height="33.8"/>
		</defs>
		<clipPath id="SVGID_32_">
			<use xlink:href="#SVGID_31_"  style="overflow:visible;"/>
		</clipPath>
		<path class="st15" d="M94.8,10.2c-1.4,0-1.9-0.6-1.9-2.3V2.6h-1.4v-1h1.4C93,0.8,93.1,0.9,93.2,0h1v1.6h2.3v1h-2.3v5
			c0,1.2,0.2,1.6,1,1.6c0.3,0,0.7-0.1,1.3-0.3l0.2,0.8C96,10,95.3,10.2,94.8,10.2"/>
	</g>
	<g>
		<defs>
			<rect id="SVGID_33_" x="-10.5" y="-5.2" width="133.5" height="33.8"/>
		</defs>
		<clipPath id="SVGID_34_">
			<use xlink:href="#SVGID_33_"  style="overflow:visible;"/>
		</clipPath>
		<path class="st16" d="M104.3,10.1H103c0-1.6,0-3.5,0-4.5c0-2.2-0.6-3-1.6-3c-0.6,0-1.3,0.4-2.1,1v6.5H98V0h1.3v2.5
			c0.7-0.6,1.5-1.1,2.5-1.1c1.5,0,2.5,1,2.5,3.8C104.4,6.2,104.3,8.3,104.3,10.1"/>
	</g>
	<g>
		<defs>
			<rect id="SVGID_35_" x="-10.5" y="-5.2" width="133.5" height="33.8"/>
		</defs>
		<clipPath id="SVGID_36_">
			<use xlink:href="#SVGID_35_"  style="overflow:visible;"/>
		</clipPath>
		<path class="st17" d="M106.9,6v0.2c0,2.1,0.8,3,2.3,3c0.8,0,1.6-0.2,2.5-0.5l0.3,0.8c-0.9,0.4-1.9,0.8-3.1,0.8
			c-2.1,0-3.4-1.1-3.4-4.1s1.3-4.6,3.5-4.6c2,0,3.2,1.3,3,4.5h-5.1V6z M110.7,5c0-1.6-0.6-2.6-1.8-2.6c-1.2,0-1.9,1.2-2,2.7L110.7,5
			L110.7,5z"/>
	</g>
	<g>
		<defs>
			<rect id="SVGID_37_" x="-10.5" y="-5.2" width="133.5" height="33.8"/>
		</defs>
		<clipPath id="SVGID_38_">
			<use xlink:href="#SVGID_37_"  style="overflow:visible;"/>
		</clipPath>
		<path class="st18" d="M83.7,23.5c-0.7,0-0.9-0.2-0.9-0.9c0-0.7,0.2-0.9,0.9-0.9c0.7,0,0.9,0.2,0.9,0.9S84.4,23.5,83.7,23.5"/>
	</g>
	<g>
		<defs>
			<rect id="SVGID_39_" x="-10.5" y="-5.2" width="133.5" height="33.8"/>
		</defs>
		<clipPath id="SVGID_40_">
			<use xlink:href="#SVGID_39_"  style="overflow:visible;"/>
		</clipPath>
		<path class="st19" d="M88.5,23.5c-2.1,0-3.2-1.4-3.2-4.3c0-2.8,1.4-4.5,3.5-4.5c0.9,0,1.7,0.4,2.3,1l-0.5,0.7
			c-0.5-0.5-1.1-0.7-1.7-0.7c-1.4,0-2.1,1.2-2.1,3.3c0,2.3,0.7,3.4,2.1,3.4c0.7,0,1.3-0.3,2-0.9l0.5,0.7
			C90.5,22.9,89.7,23.5,88.5,23.5"/>
	</g>
	<g>
		<defs>
			<rect id="SVGID_41_" x="-10.5" y="-5.2" width="133.5" height="33.8"/>
		</defs>
		<clipPath id="SVGID_42_">
			<use xlink:href="#SVGID_41_"  style="overflow:visible;"/>
		</clipPath>
		<path class="st20" d="M95.5,23.5c-2,0-3.4-1.1-3.4-4.2s1.5-4.6,3.8-4.6c2,0,3.4,1.2,3.4,4.2C99.3,22,97.8,23.5,95.5,23.5
			 M95.6,15.7c-1.4,0-2.2,1-2.2,3.1c0,2.6,0.7,3.6,2.2,3.6c1.3,0,2.2-1,2.2-3.2C97.9,16.7,97.2,15.7,95.6,15.7"/>
	</g>
	<g>
		<defs>
			<rect id="SVGID_43_" x="-10.5" y="-5.2" width="133.5" height="33.8"/>
		</defs>
		<clipPath id="SVGID_44_">
			<use xlink:href="#SVGID_43_"  style="overflow:visible;"/>
		</clipPath>
		<path class="st21" d="M111.8,23.3h-1.4c0-1.5,0.1-3.4,0.1-4.5c0-2.2-0.6-3-1.5-3c-0.6,0-1.4,0.5-2.2,1.1c0.1,0.3,0.1,0.7,0.1,1.5
			v4.9h-1.4v-4.5c0-2.2-0.6-3-1.5-3c-0.5,0-1.3,0.4-2,1v6.5h-1.4v-8.5h1.1l0.1,1c0.7-0.6,1.6-1.1,2.6-1.1c1.1,0,1.7,0.7,2,1.4
			c0.9-0.8,1.8-1.4,2.9-1.4c1.5,0,2.4,1,2.4,3.8C111.9,19.6,111.8,21.6,111.8,23.3"/>
	</g>
	<g>
		<defs>
			<rect id="SVGID_45_" x="-10.5" y="-5.2" width="133.5" height="33.8"/>
		</defs>
		<clipPath id="SVGID_46_">
			<use xlink:href="#SVGID_45_"  style="overflow:visible;"/>
		</clipPath>
		<path class="st22" d="M3.5,15.8c0,2.2-1.2,4-3,4.6l0.4-1.9C2.6,18.1,3.5,16.1,3.5,15.8"/>
	</g>
</g>
<g>
	<g>
		
			<linearGradient id="SVGID_47_" gradientUnits="userSpaceOnUse" x1="6.5" y1="27.5105" x2="6.5" y2="6.6005" gradientTransform="matrix(1 0 0 -1 0 30)">
			<stop  offset="0" style="stop-color:#68BE6F"/>
			<stop  offset="1" style="stop-color:#056835"/>
		</linearGradient>
		<path id="SVGID_5_" class="st23" d="M9.1,2.5c-2.6,0-4.5,0.6-5.6,1.8l0,0l0,0l0,0l0,0l0,0l0,0l0,0l0,0l0,0l0,0
			c-0.7,0.8-1.1,1.8-1.2,3l0,0c0,0.3,0,0.6,0,0.9l0,0c0,0.4,0.1,1,0.2,1.5c0.1,0.5,0.2,1.1,0.4,1.7H0.3l0.1,2.9h3.1
			c0.1,0.3,0.1,0.6,0.1,1.1c0,0.1,0,0.2,0,0.3v-0.1c0,0.8-0.2,1.6-0.5,2.3c-0.5,1.1-1.3,2-2.5,2.3l0.1,2.9c1.9-0.5,2.4-0.6,4-1.5
			c2.6,1.2,4.2,1.5,8,1.5v-3.5H6.3c0,0,0,0,0.1-0.1l0,0c0,0,0,0,0.1-0.1l0,0c0.3-0.3,0.6-0.7,0.9-1.1l0,0c0,0,0,0,0-0.1l0,0l0,0l0,0
			l0,0c0.1-0.2,0.2-0.3,0.3-0.5l0,0c0.5-1,0.8-2.2,0.8-3.6c1.1,0.1,4.1,0.1,4.1,0.1v-2.9H7.8l0,0C7.8,11.2,7,8.8,7,6.9
			c0-0.2,0-0.4,0-0.6c0,0,0,0,0-0.1l0,0C7.6,6,8.3,5.9,9.2,5.9c1.5,0,2.2,0.1,3.3,0.3V2.5l0,0c-0.2,0-1.7-0.3-3-0.4
			C9.4,2.5,9.3,2.5,9.1,2.5L9.1,2.5z"/>
	</g>
</g>
<g>
	<g class="st24">
		<defs>
			<rect id="SVGID_48_" x="-10.5" y="-5.2" width="133.5" height="33.8"/>
		</defs>
		<clipPath id="SVGID_49_" class="st25">
			<use xlink:href="#SVGID_48_"  style="overflow:visible;"/>
		</clipPath>
		<path class="st26" d="M3,18.1c0.3-0.6,0.4-1.4,0.5-2.2v-0.1C3.5,16.7,3.3,17.5,3,18.1"/>
	</g>
	<g>
		<defs>
			<rect id="SVGID_50_" x="-10.5" y="-5.2" width="133.5" height="33.8"/>
		</defs>
		<clipPath id="SVGID_51_">
			<use xlink:href="#SVGID_50_"  style="overflow:visible;"/>
		</clipPath>
		<path class="st27" d="M12.6,11.6L12.6,11.6H7.8l0,0C7.8,11.5,7,9.1,7,7.2C7,7,7,6.8,7,6.6c0,0,0,0,0-0.1l0,0c0.1,0,0.1,0,0.2-0.1
			c0.1,1,0.4,2.4,0.7,3.5h4.6v1.7"/>
	</g>
	<g class="st24">
		<defs>
			<rect id="SVGID_52_" x="-10.5" y="-5.2" width="133.5" height="33.8"/>
		</defs>
		<clipPath id="SVGID_53_" class="st25">
			<use xlink:href="#SVGID_52_"  style="overflow:visible;"/>
		</clipPath>
		<path class="st28" d="M7.1,6.5L7.1,6.5L7.1,6.5 M7.1,6.6C7.1,6.6,7.1,6.5,7.1,6.6C7.1,6.5,7.1,6.6,7.1,6.6 M12.6,11.6H7.8l0,0l0,0
			H12.6"/>
	</g>
	<g>
		<defs>
			<rect id="SVGID_54_" x="-10.5" y="-5.2" width="133.5" height="33.8"/>
		</defs>
		<clipPath id="SVGID_55_">
			<use xlink:href="#SVGID_54_"  style="overflow:visible;"/>
		</clipPath>
		<path class="st29" d="M2.6,11.6H0.3l0.4-1.7c0,0,0.2,0,0.4,0c0.4,0,1.1,0,1.2,0l0,0C2.3,10.5,2.4,11.1,2.6,11.6"/>
	</g>
	<g class="st24">
		<defs>
			<rect id="SVGID_56_" x="-10.5" y="-5.2" width="133.5" height="33.8"/>
		</defs>
		<clipPath id="SVGID_57_" class="st25">
			<use xlink:href="#SVGID_56_"  style="overflow:visible;"/>
		</clipPath>
		<path class="st30" d="M2.6,11.6C2.4,11,2.3,10.5,2.2,9.9C2.3,10.5,2.4,11.1,2.6,11.6 M2.6,11.6H0.3H2.6"/>
	</g>
	<g>
		<defs>
			<rect id="SVGID_58_" x="-10.5" y="-5.2" width="133.5" height="33.8"/>
		</defs>
		<clipPath id="SVGID_59_">
			<use xlink:href="#SVGID_58_"  style="overflow:visible;"/>
		</clipPath>
		<path class="st31" d="M12.6,19.9L12.6,19.9H6.3c0,0,0,0,0.1-0.1l0,0c0,0,0,0,0.1-0.1l0,0c0.3-0.3,0.6-0.7,0.9-1.1l0,0
			c0,0,0,0,0-0.1l0,0l0,0l0,0l0,0c0.1-0.2,0.2-0.3,0.3-0.5c0.5,0,4.9,0,4.9,0V19.9"/>
	</g>
	<g class="st24">
		<defs>
			<rect id="SVGID_60_" x="-10.5" y="-5.2" width="133.5" height="33.8"/>
		</defs>
		<clipPath id="SVGID_61_" class="st25">
			<use xlink:href="#SVGID_60_"  style="overflow:visible;"/>
		</clipPath>
		<path class="st32" d="M7.4,18.5c0.1-0.2,0.2-0.3,0.3-0.5l0,0C7.6,18.2,7.5,18.3,7.4,18.5 M7.4,18.6C7.4,18.6,7.4,18.5,7.4,18.6
			C7.4,18.5,7.4,18.6,7.4,18.6 M7.4,18.6L7.4,18.6L7.4,18.6 M7.3,18.7L7.3,18.7L7.3,18.7 M6.4,19.8L6.4,19.8L6.4,19.8 M6.3,19.8
			L6.3,19.8L6.3,19.8 M12.6,19.9H6.3H12.6"/>
	</g>
	<g>
		<defs>
			<rect id="SVGID_62_" x="-10.5" y="-5.2" width="133.5" height="33.8"/>
		</defs>
		<clipPath id="SVGID_63_">
			<use xlink:href="#SVGID_62_"  style="overflow:visible;"/>
		</clipPath>
		<path class="st33" d="M2.1,7.5c0.1-1.1,0.2-1.8,0.7-3c1-2.7,3.6-3.4,6.4-3.5c2.2,0,3.4,0.4,3.4,0.4v1.4l0,0c-0.2,0-1.7-0.3-3-0.4
			c-0.1,0-0.3,0-0.4,0l0,0C6.6,2.4,4.7,3,3.6,4.2l0,0l0,0l0,0l0,0l0,0l0,0l0,0l0,0l0,0l0,0C2.6,5.3,2.2,6.3,2.1,7.5"/>
	</g>
	<g class="st24">
		<defs>
			<rect id="SVGID_64_" x="-10.5" y="-5.2" width="133.5" height="33.8"/>
		</defs>
		<clipPath id="SVGID_65_" class="st25">
			<use xlink:href="#SVGID_64_"  style="overflow:visible;"/>
		</clipPath>
		<path class="st34" d="M9.1,2.5L9.1,2.5 M9.5,2.5c-0.1,0-0.3,0-0.4,0C9.3,2.5,9.4,2.5,9.5,2.5 M12.6,2.9L12.6,2.9L12.6,2.9
			 M3.5,4.3L3.5,4.3L3.5,4.3 M3.4,4.3L3.4,4.3L3.4,4.3 M3.3,4.4C3.4,4.4,3.4,4.4,3.3,4.4C3.4,4.4,3.4,4.4,3.3,4.4 M3.3,4.4L3.3,4.4
			L3.3,4.4 M3.3,4.5L3.3,4.5L3.3,4.5 M2.1,7.5L2.1,7.5c0.1-1.2,0.5-2.2,1.2-3C2.6,5.3,2.2,6.3,2.1,7.5"/>
	</g>
</g>
<g>
	<g>
		
			<linearGradient id="SVGID_66_" gradientUnits="userSpaceOnUse" x1="21.6" y1="27.5" x2="21.6" y2="6.5899" gradientTransform="matrix(1 0 0 -1 0 30)">
			<stop  offset="0" style="stop-color:#5160AB"/>
			<stop  offset="1" style="stop-color:#19184C"/>
		</linearGradient>
		<path id="SVGID_10_" class="st35" d="M19,2.5c-1.6,0-3.5,0.4-3.5,0.4v3.7c1.1-0.2,1.7-0.3,3.3-0.3c0.8,0,1.5,0.1,2.2,0.3
			c0,0.2,0,0.5,0,0.7c0,1.9-0.8,4.4-0.8,4.4h-4.7v2.9c0,0,3,0,4.1-0.1c0,2.3,0.7,4.1,2.2,5.5h-6.4v3.5c3.9,0,5.5-0.3,8-1.5
			c1.6,0.9,2.1,1,4,1.5l0.1-2.9c-1.9-0.6-3-2.4-3-4.8c0-0.5,0-0.8,0.1-1.1h3.1l0.1-2.9h-2.3c0.3-1.1,0.5-2.4,0.5-3.2l0,0
			C26.1,4.7,24,2.5,19,2.5L19,2.5z"/>
	</g>
</g>
<g>
	<g>
		<defs>
			<rect id="SVGID_67_" x="-10.5" y="-5.2" width="133.5" height="33.8"/>
		</defs>
		<clipPath id="SVGID_68_">
			<use xlink:href="#SVGID_67_"  style="overflow:visible;"/>
		</clipPath>
		<path class="st36" d="M20.8,6.5c0.1,0,0.2,0,0.2,0.1c0,0.2,0,0.5,0,0.7c0,1.9-0.8,4.4-0.8,4.4h-4.7V9.9h4.6
			C20.4,8.9,20.7,7.4,20.8,6.5"/>
	</g>
	<g>
		<defs>
			<rect id="SVGID_69_" x="-10.5" y="-5.2" width="133.5" height="33.8"/>
		</defs>
		<clipPath id="SVGID_70_">
			<use xlink:href="#SVGID_69_"  style="overflow:visible;"/>
		</clipPath>
		<path class="st37" d="M27.4,9.9c0,0-1.4,0-1.5,0c-0.1,0.5-0.2,1.1-0.4,1.7h2.3L27.4,9.9z"/>
	</g>
	<g>
		<defs>
			<rect id="SVGID_71_" x="-10.5" y="-5.2" width="133.5" height="33.8"/>
		</defs>
		<clipPath id="SVGID_72_">
			<use xlink:href="#SVGID_71_"  style="overflow:visible;"/>
		</clipPath>
		<path class="st38" d="M27.2,18.5l0.4,1.9c-1.9-0.6-3-2.5-3-4.7C24.6,16.1,25.2,17.9,27.2,18.5"/>
	</g>
	<g>
		<defs>
			<rect id="SVGID_73_" x="-10.5" y="-5.2" width="133.5" height="33.8"/>
		</defs>
		<clipPath id="SVGID_74_">
			<use xlink:href="#SVGID_73_"  style="overflow:visible;"/>
		</clipPath>
		<path class="st39" d="M15.5,18c0,0,4.4,0,4.9,0c0.4,0.7,0.8,1.3,1.5,1.9h-6.4V18z"/>
	</g>
	<g>
		<defs>
			<rect id="SVGID_75_" x="-10.5" y="-5.2" width="133.5" height="33.8"/>
		</defs>
		<clipPath id="SVGID_76_">
			<use xlink:href="#SVGID_75_"  style="overflow:visible;"/>
		</clipPath>
		<path class="st40" d="M19,2.5c-1.6,0-3.5,0.4-3.5,0.4V1.5c0,0,1.1-0.4,3.4-0.4c2.8,0,5.4,0.7,6.5,3.4c0.4,1.3,0.6,2,0.7,3.1
			C25.7,4.4,23.6,2.5,19,2.5"/>
	</g>
</g>
</svg>
